<?xml version="1.0" encoding="UTF-8" standalone="no"?>
<!DOCTYPE svg PUBLIC "-//W3C//DTD SVG 1.1//EN"
 "http://www.w3.org/Graphics/SVG/1.1/DTD/svg11.dtd">
<!-- Generated by graphviz version 2.40.1 (20161225.0304)
 -->
<!-- Title: G Pages: 1 -->
<svg width="658pt" height="761pt"
 viewBox="0.00 0.00 658.00 761.00" xmlns="http://www.w3.org/2000/svg" xmlns:xlink="http://www.w3.org/1999/xlink">
<g id="graph0" class="graph" transform="scale(1 1) rotate(0) translate(4 757)">
<title>G</title>
<polygon fill="#ffffff" stroke="transparent" points="-4,4 -4,-757 654,-757 654,4 -4,4"/>
<g id="clust1" class="cluster">
<title>cluster_root</title>
<g id="a_clust1"><a xlink:title="eventq_index=0&#10;full_system=false&#10;sim_quantum=0&#10;time_sync_enable=false&#10;time_sync_period=100000000000&#10;time_sync_spin_threshold=100000000">
<path fill="#bab6ae" stroke="#000000" d="M20,-8C20,-8 630,-8 630,-8 636,-8 642,-14 642,-20 642,-20 642,-733 642,-733 642,-739 636,-745 630,-745 630,-745 20,-745 20,-745 14,-745 8,-739 8,-733 8,-733 8,-20 8,-20 8,-14 14,-8 20,-8"/>
<text text-anchor="middle" x="325" y="-729.8" font-family="Arial" font-size="14.00" fill="#000000">root </text>
<text text-anchor="middle" x="325" y="-714.8" font-family="Arial" font-size="14.00" fill="#000000">: Root</text>
</a>
</g>
</g>
<g id="clust2" class="cluster">
<title>cluster_system</title>
<g id="a_clust2"><a xlink:title="boot_osflags=a&#10;cache_line_size=64&#10;clk_domain=system.clk_domain&#10;default_p_state=UNDEFINED&#10;eventq_index=0&#10;exit_on_work_items=false&#10;init_param=0&#10;kernel=&#10;kernel_addr_check=true&#10;kernel_extras=&#10;kvm_vm=Null&#10;load_addr_mask=18446744073709551615&#10;load_offset=0&#10;mem_mode=timing&#10;mem_ranges=0:536870911:0:0:0:0&#10;memories=system.mem_ctrl&#10;mmap_using_noreserve=false&#10;multi_thread=false&#10;num_work_ids=16&#10;p_state_clk_gate_bins=20&#10;p_state_clk_gate_max=1000000000000&#10;p_state_clk_gate_min=1000&#10;power_model=&#10;readfile=&#10;symbolfile=&#10;thermal_components=&#10;thermal_model=Null&#10;work_begin_ckpt_count=0&#10;work_begin_cpu_id_exit=&#45;1&#10;work_begin_exit_count=0&#10;work_cpus_ckpt_count=0&#10;work_end_ckpt_count=0&#10;work_end_exit_count=0&#10;work_item_id=&#45;1">
<path fill="#e4e7eb" stroke="#000000" d="M28,-16C28,-16 622,-16 622,-16 628,-16 634,-22 634,-28 634,-28 634,-687 634,-687 634,-693 628,-699 622,-699 622,-699 28,-699 28,-699 22,-699 16,-693 16,-687 16,-687 16,-28 16,-28 16,-22 22,-16 28,-16"/>
<text text-anchor="middle" x="325" y="-683.8" font-family="Arial" font-size="14.00" fill="#000000">system </text>
<text text-anchor="middle" x="325" y="-668.8" font-family="Arial" font-size="14.00" fill="#000000">: MySystem</text>
</a>
</g>
</g>
<g id="clust3" class="cluster">
<title>cluster_system_membus</title>
<g id="a_clust3"><a xlink:title="clk_domain=system.clk_domain&#10;default_p_state=UNDEFINED&#10;eventq_index=0&#10;forward_latency=4&#10;frontend_latency=3&#10;p_state_clk_gate_bins=20&#10;p_state_clk_gate_max=1000000000000&#10;p_state_clk_gate_min=1000&#10;point_of_coherency=true&#10;point_of_unification=true&#10;power_model=&#10;response_latency=2&#10;snoop_filter=system.membus.snoop_filter&#10;snoop_response_latency=4&#10;system=system&#10;use_default_range=false&#10;width=16">
<path fill="#6f798c" stroke="#000000" d="M257,-155C257,-155 383,-155 383,-155 389,-155 395,-161 395,-167 395,-167 395,-234 395,-234 395,-240 389,-246 383,-246 383,-246 257,-246 257,-246 251,-246 245,-240 245,-234 245,-234 245,-167 245,-167 245,-161 251,-155 257,-155"/>
<text text-anchor="middle" x="320" y="-230.8" font-family="Arial" font-size="14.00" fill="#000000">membus </text>
<text text-anchor="middle" x="320" y="-215.8" font-family="Arial" font-size="14.00" fill="#000000">: SystemXBar</text>
</a>
</g>
</g>
<g id="clust5" class="cluster">
<title>cluster_system_mem_ctrl</title>
<g id="a_clust5"><a xlink:title="bandwidth=0.000000&#10;clk_domain=system.clk_domain&#10;conf_table_reported=true&#10;default_p_state=UNDEFINED&#10;eventq_index=0&#10;in_addr_map=true&#10;kvm_map=true&#10;latency=0&#10;latency_var=0&#10;null=false&#10;p_state_clk_gate_bins=20&#10;p_state_clk_gate_max=1000000000000&#10;p_state_clk_gate_min=1000&#10;power_model=&#10;range=0:536870911:0:0:0:0">
<path fill="#5e5958" stroke="#000000" d="M322,-24C322,-24 390,-24 390,-24 396,-24 402,-30 402,-36 402,-36 402,-103 402,-103 402,-109 396,-115 390,-115 390,-115 322,-115 322,-115 316,-115 310,-109 310,-103 310,-103 310,-36 310,-36 310,-30 316,-24 322,-24"/>
<text text-anchor="middle" x="356" y="-99.8" font-family="Arial" font-size="14.00" fill="#000000">mem_ctrl </text>
<text text-anchor="middle" x="356" y="-84.8" font-family="Arial" font-size="14.00" fill="#000000">: InfMemory</text>
</a>
</g>
</g>
<g id="clust8" class="cluster">
<title>cluster_system_interrupt_xbar</title>
<g id="a_clust8"><a xlink:title="clk_domain=system.clk_domain&#10;default_p_state=UNDEFINED&#10;eventq_index=0&#10;forward_latency=4&#10;frontend_latency=3&#10;p_state_clk_gate_bins=20&#10;p_state_clk_gate_max=1000000000000&#10;p_state_clk_gate_min=1000&#10;point_of_coherency=true&#10;point_of_unification=true&#10;power_model=&#10;response_latency=2&#10;snoop_filter=system.interrupt_xbar.snoop_filter&#10;snoop_response_latency=4&#10;system=system&#10;use_default_range=false&#10;width=16">
<path fill="#6f798c" stroke="#000000" d="M402,-562C402,-562 528,-562 528,-562 534,-562 540,-568 540,-574 540,-574 540,-641 540,-641 540,-647 534,-653 528,-653 528,-653 402,-653 402,-653 396,-653 390,-647 390,-641 390,-641 390,-574 390,-574 390,-568 396,-562 402,-562"/>
<text text-anchor="middle" x="465" y="-637.8" font-family="Arial" font-size="14.00" fill="#000000">interrupt_xbar </text>
<text text-anchor="middle" x="465" y="-622.8" font-family="Arial" font-size="14.00" fill="#000000">: SystemXBar</text>
</a>
</g>
</g>
<g id="clust11" class="cluster">
<title>cluster_system_cpu</title>
<g id="a_clust11"><a xlink:title="LFSTSize=1024&#10;LQEntries=192&#10;LSQCheckLoads=true&#10;LSQDepCheckShift=4&#10;SQEntries=192&#10;SSITSize=1024&#10;activity=0&#10;backComSize=5&#10;branchPred=system.cpu.branchPred&#10;cacheStorePorts=200&#10;checker=Null&#10;clk_domain=system.clk_domain&#10;commitToDecodeDelay=1&#10;commitToFetchDelay=1&#10;commitToIEWDelay=1&#10;commitToRenameDelay=1&#10;commitWidth=2&#10;cpu_id=&#45;1&#10;decodeToFetchDelay=1&#10;decodeToRenameDelay=1&#10;decodeWidth=2&#10;default_p_state=UNDEFINED&#10;dispatchWidth=2&#10;do_checkpoint_insts=true&#10;do_quiesce=true&#10;do_statistics_insts=true&#10;dtb=system.cpu.dtb&#10;eventq_index=0&#10;fetchBufferSize=64&#10;fetchQueueSize=256&#10;fetchToDecodeDelay=1&#10;fetchTrapLatency=1&#10;fetchWidth=2&#10;forwardComSize=5&#10;fuPool=system.cpu.fuPool&#10;function_trace=false&#10;function_trace_start=0&#10;iewToCommitDelay=1&#10;iewToDecodeDelay=1&#10;iewToFetchDelay=1&#10;iewToRenameDelay=1&#10;interrupts=system.cpu.interrupts&#10;isa=system.cpu.isa&#10;issueToExecuteDelay=1&#10;issueWidth=2&#10;itb=system.cpu.itb&#10;max_insts_all_threads=0&#10;max_insts_any_thread=0&#10;max_loads_all_threads=0&#10;max_loads_any_thread=0&#10;needsTSO=true&#10;numIQEntries=32&#10;numPhysCCRegs=1280&#10;numPhysFloatRegs=256&#10;numPhysIntRegs=256&#10;numPhysVecRegs=256&#10;numROBEntries=32&#10;numRobs=1&#10;numThreads=1&#10;p_state_clk_gate_bins=20&#10;p_state_clk_gate_max=1000000000000&#10;p_state_clk_gate_min=1000&#10;power_gating_on_idle=false&#10;power_model=&#10;profile=0&#10;progress_interval=0&#10;pwr_gating_latency=300&#10;renameToDecodeDelay=1&#10;renameToFetchDelay=1&#10;renameToIEWDelay=2&#10;renameToROBDelay=1&#10;renameWidth=2&#10;simpoint_start_insts=&#10;smtCommitPolicy=RoundRobin&#10;smtFetchPolicy=SingleThread&#10;smtIQPolicy=Partitioned&#10;smtIQThreshold=100&#10;smtLSQPolicy=Partitioned&#10;smtLSQThreshold=100&#10;smtNumFetchingThreads=1&#10;smtROBPolicy=Partitioned&#10;smtROBThreshold=100&#10;socket_id=0&#10;squashWidth=2&#10;store_set_clear_period=250000&#10;switched_out=false&#10;syscallRetryLatency=10000&#10;system=system&#10;tracer=system.cpu.tracer&#10;trapLatency=13&#10;wait_for_remote_gdb=false&#10;wbWidth=2&#10;workload=system.cpu.workload">
<path fill="#bbc6d9" stroke="#000000" d="M140,-278C140,-278 614,-278 614,-278 620,-278 626,-284 626,-290 626,-290 626,-542 626,-542 626,-548 620,-554 614,-554 614,-554 140,-554 140,-554 134,-554 128,-548 128,-542 128,-542 128,-290 128,-290 128,-284 134,-278 140,-278"/>
<text text-anchor="middle" x="377" y="-538.8" font-family="Arial" font-size="14.00" fill="#000000">cpu </text>
<text text-anchor="middle" x="377" y="-523.8" font-family="Arial" font-size="14.00" fill="#000000">: O3_SmallCPU</text>
</a>
</g>
</g>
<g id="clust12" class="cluster">
<title>cluster_system_cpu_icache</title>
<g id="a_clust12"><a xlink:title="addr_ranges=0:18446744073709551615:0:0:0:0&#10;assoc=2&#10;clk_domain=system.clk_domain&#10;clusivity=mostly_incl&#10;data_latency=2&#10;default_p_state=UNDEFINED&#10;demand_mshr_reserve=1&#10;eventq_index=0&#10;is_read_only=false&#10;max_miss_count=0&#10;mshrs=4&#10;p_state_clk_gate_bins=20&#10;p_state_clk_gate_max=1000000000000&#10;p_state_clk_gate_min=1000&#10;power_model=&#10;prefetch_on_access=false&#10;prefetcher=Null&#10;replacement_policy=system.cpu.icache.replacement_policy&#10;response_latency=2&#10;sequential_access=false&#10;size=16384&#10;system=system&#10;tag_latency=2&#10;tags=system.cpu.icache.tags&#10;tgts_per_mshr=20&#10;warmup_percentage=0&#10;write_allocator=Null&#10;write_buffers=8&#10;writeback_clean=false">
<path fill="#bab6ae" stroke="#000000" d="M350,-286C350,-286 520,-286 520,-286 526,-286 532,-292 532,-298 532,-298 532,-365 532,-365 532,-371 526,-377 520,-377 520,-377 350,-377 350,-377 344,-377 338,-371 338,-365 338,-365 338,-298 338,-298 338,-292 344,-286 350,-286"/>
<text text-anchor="middle" x="435" y="-361.8" font-family="Arial" font-size="14.00" fill="#000000">icache </text>
<text text-anchor="middle" x="435" y="-346.8" font-family="Arial" font-size="14.00" fill="#000000">: L1ICache</text>
</a>
</g>
</g>
<g id="clust69" class="cluster">
<title>cluster_system_cpu_interrupts</title>
<g id="a_clust69"><a xlink:title="clk_domain=system.cpu.apic_clk_domain&#10;default_p_state=UNDEFINED&#10;eventq_index=0&#10;int_latency=1000&#10;p_state_clk_gate_bins=20&#10;p_state_clk_gate_max=1000000000000&#10;p_state_clk_gate_min=1000&#10;pio_addr=2305843009213693952&#10;pio_latency=100000&#10;power_model=&#10;system=system">
<path fill="#c7a793" stroke="#000000" d="M366,-417C366,-417 606,-417 606,-417 612,-417 618,-423 618,-429 618,-429 618,-496 618,-496 618,-502 612,-508 606,-508 606,-508 366,-508 366,-508 360,-508 354,-502 354,-496 354,-496 354,-429 354,-429 354,-423 360,-417 366,-417"/>
<text text-anchor="middle" x="486" y="-492.8" font-family="Arial" font-size="14.00" fill="#000000">interrupts </text>
<text text-anchor="middle" x="486" y="-477.8" font-family="Arial" font-size="14.00" fill="#000000">: X86LocalApic</text>
</a>
</g>
</g>
<g id="clust73" class="cluster">
<title>cluster_system_cpu_dcache</title>
<g id="a_clust73"><a xlink:title="addr_ranges=0:18446744073709551615:0:0:0:0&#10;assoc=2&#10;clk_domain=system.clk_domain&#10;clusivity=mostly_incl&#10;data_latency=2&#10;default_p_state=UNDEFINED&#10;demand_mshr_reserve=1&#10;eventq_index=0&#10;is_read_only=false&#10;max_miss_count=0&#10;mshrs=4&#10;p_state_clk_gate_bins=20&#10;p_state_clk_gate_max=1000000000000&#10;p_state_clk_gate_min=1000&#10;power_model=&#10;prefetch_on_access=false&#10;prefetcher=Null&#10;replacement_policy=system.cpu.dcache.replacement_policy&#10;response_latency=2&#10;sequential_access=false&#10;size=65536&#10;system=system&#10;tag_latency=2&#10;tags=system.cpu.dcache.tags&#10;tgts_per_mshr=20&#10;warmup_percentage=0&#10;write_allocator=Null&#10;write_buffers=8&#10;writeback_clean=false">
<path fill="#bab6ae" stroke="#000000" d="M148,-286C148,-286 318,-286 318,-286 324,-286 330,-292 330,-298 330,-298 330,-365 330,-365 330,-371 324,-377 318,-377 318,-377 148,-377 148,-377 142,-377 136,-371 136,-365 136,-365 136,-298 136,-298 136,-292 142,-286 148,-286"/>
<text text-anchor="middle" x="233" y="-361.8" font-family="Arial" font-size="14.00" fill="#000000">dcache </text>
<text text-anchor="middle" x="233" y="-346.8" font-family="Arial" font-size="14.00" fill="#000000">: L1DCache</text>
</a>
</g>
</g>
<!-- system_system_port -->
<g id="node1" class="node">
<title>system_system_port</title>
<path fill="#b6b8bc" stroke="#000000" d="M36,-294.5C36,-294.5 108,-294.5 108,-294.5 114,-294.5 120,-300.5 120,-306.5 120,-306.5 120,-318.5 120,-318.5 120,-324.5 114,-330.5 108,-330.5 108,-330.5 36,-330.5 36,-330.5 30,-330.5 24,-324.5 24,-318.5 24,-318.5 24,-306.5 24,-306.5 24,-300.5 30,-294.5 36,-294.5"/>
<text text-anchor="middle" x="72" y="-308.8" font-family="Arial" font-size="14.00" fill="#000000">system_port</text>
</g>
<!-- system_membus_slave -->
<g id="node3" class="node">
<title>system_membus_slave</title>
<path fill="#586070" stroke="#000000" d="M265,-163.5C265,-163.5 295,-163.5 295,-163.5 301,-163.5 307,-169.5 307,-175.5 307,-175.5 307,-187.5 307,-187.5 307,-193.5 301,-199.5 295,-199.5 295,-199.5 265,-199.5 265,-199.5 259,-199.5 253,-193.5 253,-187.5 253,-187.5 253,-175.5 253,-175.5 253,-169.5 259,-163.5 265,-163.5"/>
<text text-anchor="middle" x="280" y="-177.8" font-family="Arial" font-size="14.00" fill="#000000">slave</text>
</g>
<!-- system_system_port&#45;&gt;system_membus_slave -->
<g id="edge1" class="edge">
<title>system_system_port&#45;&gt;system_membus_slave</title>
<path fill="none" stroke="#000000" d="M100.9215,-294.285C138.4639,-270.6405 203.9554,-229.3935 244.4783,-203.8718"/>
<polygon fill="#000000" stroke="#000000" points="246.3779,-206.8118 252.9743,-198.521 242.6474,-200.8887 246.3779,-206.8118"/>
</g>
<!-- system_membus_master -->
<g id="node2" class="node">
<title>system_membus_master</title>
<path fill="#586070" stroke="#000000" d="M337.5,-163.5C337.5,-163.5 374.5,-163.5 374.5,-163.5 380.5,-163.5 386.5,-169.5 386.5,-175.5 386.5,-175.5 386.5,-187.5 386.5,-187.5 386.5,-193.5 380.5,-199.5 374.5,-199.5 374.5,-199.5 337.5,-199.5 337.5,-199.5 331.5,-199.5 325.5,-193.5 325.5,-187.5 325.5,-187.5 325.5,-175.5 325.5,-175.5 325.5,-169.5 331.5,-163.5 337.5,-163.5"/>
<text text-anchor="middle" x="356" y="-177.8" font-family="Arial" font-size="14.00" fill="#000000">master</text>
</g>
<!-- system_mem_ctrl_port -->
<g id="node4" class="node">
<title>system_mem_ctrl_port</title>
<path fill="#4b4746" stroke="#000000" d="M341,-32.5C341,-32.5 371,-32.5 371,-32.5 377,-32.5 383,-38.5 383,-44.5 383,-44.5 383,-56.5 383,-56.5 383,-62.5 377,-68.5 371,-68.5 371,-68.5 341,-68.5 341,-68.5 335,-68.5 329,-62.5 329,-56.5 329,-56.5 329,-44.5 329,-44.5 329,-38.5 335,-32.5 341,-32.5"/>
<text text-anchor="middle" x="356" y="-46.8" font-family="Arial" font-size="14.00" fill="#000000">port</text>
</g>
<!-- system_membus_master&#45;&gt;system_mem_ctrl_port -->
<g id="edge2" class="edge">
<title>system_membus_master&#45;&gt;system_mem_ctrl_port</title>
<path fill="none" stroke="#000000" d="M356,-163.285C356,-141.3856 356,-104.3861 356,-78.7663"/>
<polygon fill="#000000" stroke="#000000" points="359.5001,-78.5603 356,-68.5603 352.5001,-78.5603 359.5001,-78.5603"/>
</g>
<!-- system_interrupt_xbar_master -->
<g id="node5" class="node">
<title>system_interrupt_xbar_master</title>
<path fill="#586070" stroke="#000000" d="M482.5,-570.5C482.5,-570.5 519.5,-570.5 519.5,-570.5 525.5,-570.5 531.5,-576.5 531.5,-582.5 531.5,-582.5 531.5,-594.5 531.5,-594.5 531.5,-600.5 525.5,-606.5 519.5,-606.5 519.5,-606.5 482.5,-606.5 482.5,-606.5 476.5,-606.5 470.5,-600.5 470.5,-594.5 470.5,-594.5 470.5,-582.5 470.5,-582.5 470.5,-576.5 476.5,-570.5 482.5,-570.5"/>
<text text-anchor="middle" x="501" y="-584.8" font-family="Arial" font-size="14.00" fill="#000000">master</text>
</g>
<!-- system_cpu_interrupts_int_slave -->
<g id="node11" class="node">
<title>system_cpu_interrupts_int_slave</title>
<path fill="#9f8575" stroke="#000000" d="M476,-425.5C476,-425.5 526,-425.5 526,-425.5 532,-425.5 538,-431.5 538,-437.5 538,-437.5 538,-449.5 538,-449.5 538,-455.5 532,-461.5 526,-461.5 526,-461.5 476,-461.5 476,-461.5 470,-461.5 464,-455.5 464,-449.5 464,-449.5 464,-437.5 464,-437.5 464,-431.5 470,-425.5 476,-425.5"/>
<text text-anchor="middle" x="501" y="-439.8" font-family="Arial" font-size="14.00" fill="#000000">int_slave</text>
</g>
<!-- system_interrupt_xbar_master&#45;&gt;system_cpu_interrupts_int_slave -->
<g id="edge4" class="edge">
<title>system_interrupt_xbar_master&#45;&gt;system_cpu_interrupts_int_slave</title>
<path fill="none" stroke="#000000" d="M501,-570.4288C501,-545.7906 501,-501.3889 501,-472.1777"/>
<polygon fill="#000000" stroke="#000000" points="504.5001,-471.7989 501,-461.7989 497.5001,-471.7989 504.5001,-471.7989"/>
</g>
<!-- system_cpu_interrupts_pio -->
<g id="node13" class="node">
<title>system_cpu_interrupts_pio</title>
<path fill="#9f8575" stroke="#000000" d="M568,-425.5C568,-425.5 598,-425.5 598,-425.5 604,-425.5 610,-431.5 610,-437.5 610,-437.5 610,-449.5 610,-449.5 610,-455.5 604,-461.5 598,-461.5 598,-461.5 568,-461.5 568,-461.5 562,-461.5 556,-455.5 556,-449.5 556,-449.5 556,-437.5 556,-437.5 556,-431.5 562,-425.5 568,-425.5"/>
<text text-anchor="middle" x="583" y="-439.8" font-family="Arial" font-size="14.00" fill="#000000">pio</text>
</g>
<!-- system_interrupt_xbar_master&#45;&gt;system_cpu_interrupts_pio -->
<g id="edge3" class="edge">
<title>system_interrupt_xbar_master&#45;&gt;system_cpu_interrupts_pio</title>
<path fill="none" stroke="#000000" d="M530.6963,-570.4673C536.737,-565.7169 542.5849,-560.1698 547,-554 564.6152,-529.3841 573.9479,-495.6705 578.656,-471.976"/>
<polygon fill="#000000" stroke="#000000" points="582.1493,-472.3298 580.5069,-461.863 575.2637,-471.0695 582.1493,-472.3298"/>
</g>
<!-- system_interrupt_xbar_slave -->
<g id="node6" class="node">
<title>system_interrupt_xbar_slave</title>
<path fill="#586070" stroke="#000000" d="M410,-570.5C410,-570.5 440,-570.5 440,-570.5 446,-570.5 452,-576.5 452,-582.5 452,-582.5 452,-594.5 452,-594.5 452,-600.5 446,-606.5 440,-606.5 440,-606.5 410,-606.5 410,-606.5 404,-606.5 398,-600.5 398,-594.5 398,-594.5 398,-582.5 398,-582.5 398,-576.5 404,-570.5 410,-570.5"/>
<text text-anchor="middle" x="425" y="-584.8" font-family="Arial" font-size="14.00" fill="#000000">slave</text>
</g>
<!-- system_cpu_icache_port -->
<g id="node7" class="node">
<title>system_cpu_icache_port</title>
<path fill="#959ead" stroke="#000000" d="M264,-425.5C264,-425.5 332,-425.5 332,-425.5 338,-425.5 344,-431.5 344,-437.5 344,-437.5 344,-449.5 344,-449.5 344,-455.5 338,-461.5 332,-461.5 332,-461.5 264,-461.5 264,-461.5 258,-461.5 252,-455.5 252,-449.5 252,-449.5 252,-437.5 252,-437.5 252,-431.5 258,-425.5 264,-425.5"/>
<text text-anchor="middle" x="298" y="-439.8" font-family="Arial" font-size="14.00" fill="#000000">icache_port</text>
</g>
<!-- system_cpu_icache_cpu_side -->
<g id="node10" class="node">
<title>system_cpu_icache_cpu_side</title>
<path fill="#94918b" stroke="#000000" d="M358,-294.5C358,-294.5 410,-294.5 410,-294.5 416,-294.5 422,-300.5 422,-306.5 422,-306.5 422,-318.5 422,-318.5 422,-324.5 416,-330.5 410,-330.5 410,-330.5 358,-330.5 358,-330.5 352,-330.5 346,-324.5 346,-318.5 346,-318.5 346,-306.5 346,-306.5 346,-300.5 352,-294.5 358,-294.5"/>
<text text-anchor="middle" x="384" y="-308.8" font-family="Arial" font-size="14.00" fill="#000000">cpu_side</text>
</g>
<!-- system_cpu_icache_port&#45;&gt;system_cpu_icache_cpu_side -->
<g id="edge5" class="edge">
<title>system_cpu_icache_port&#45;&gt;system_cpu_icache_cpu_side</title>
<path fill="none" stroke="#000000" d="M309.9579,-425.285C324.6556,-402.8968 349.7137,-364.7268 366.5584,-339.068"/>
<polygon fill="#000000" stroke="#000000" points="369.5815,-340.8407 372.1436,-330.5603 363.7298,-336.9991 369.5815,-340.8407"/>
</g>
<!-- system_cpu_dcache_port -->
<g id="node8" class="node">
<title>system_cpu_dcache_port</title>
<path fill="#959ead" stroke="#000000" d="M148,-425.5C148,-425.5 222,-425.5 222,-425.5 228,-425.5 234,-431.5 234,-437.5 234,-437.5 234,-449.5 234,-449.5 234,-455.5 228,-461.5 222,-461.5 222,-461.5 148,-461.5 148,-461.5 142,-461.5 136,-455.5 136,-449.5 136,-449.5 136,-437.5 136,-437.5 136,-431.5 142,-425.5 148,-425.5"/>
<text text-anchor="middle" x="185" y="-439.8" font-family="Arial" font-size="14.00" fill="#000000">dcache_port</text>
</g>
<!-- system_cpu_dcache_cpu_side -->
<g id="node15" class="node">
<title>system_cpu_dcache_cpu_side</title>
<path fill="#94918b" stroke="#000000" d="M156,-294.5C156,-294.5 208,-294.5 208,-294.5 214,-294.5 220,-300.5 220,-306.5 220,-306.5 220,-318.5 220,-318.5 220,-324.5 214,-330.5 208,-330.5 208,-330.5 156,-330.5 156,-330.5 150,-330.5 144,-324.5 144,-318.5 144,-318.5 144,-306.5 144,-306.5 144,-300.5 150,-294.5 156,-294.5"/>
<text text-anchor="middle" x="182" y="-308.8" font-family="Arial" font-size="14.00" fill="#000000">cpu_side</text>
</g>
<!-- system_cpu_dcache_port&#45;&gt;system_cpu_dcache_cpu_side -->
<g id="edge6" class="edge">
<title>system_cpu_dcache_port&#45;&gt;system_cpu_dcache_cpu_side</title>
<path fill="none" stroke="#000000" d="M184.5829,-425.285C184.0813,-403.3856 183.234,-366.3861 182.6473,-340.7663"/>
<polygon fill="#000000" stroke="#000000" points="186.1417,-340.4775 182.4136,-330.5603 179.1436,-340.6378 186.1417,-340.4775"/>
</g>
<!-- system_cpu_icache_mem_side -->
<g id="node9" class="node">
<title>system_cpu_icache_mem_side</title>
<path fill="#94918b" stroke="#000000" d="M452,-294.5C452,-294.5 512,-294.5 512,-294.5 518,-294.5 524,-300.5 524,-306.5 524,-306.5 524,-318.5 524,-318.5 524,-324.5 518,-330.5 512,-330.5 512,-330.5 452,-330.5 452,-330.5 446,-330.5 440,-324.5 440,-318.5 440,-318.5 440,-306.5 440,-306.5 440,-300.5 446,-294.5 452,-294.5"/>
<text text-anchor="middle" x="482" y="-308.8" font-family="Arial" font-size="14.00" fill="#000000">mem_side</text>
</g>
<!-- system_cpu_icache_mem_side&#45;&gt;system_membus_slave -->
<g id="edge7" class="edge">
<title>system_cpu_icache_mem_side&#45;&gt;system_membus_slave</title>
<path fill="none" stroke="#000000" d="M458.5599,-294.3329C450.2051,-288.4959 440.5038,-282.4072 431,-278 383.2585,-255.8611 358.5145,-278.3409 317,-246 304.9081,-236.5801 296.0735,-222.0232 290.0758,-209.1208"/>
<polygon fill="#000000" stroke="#000000" points="293.1905,-207.5031 286.0354,-199.6893 286.7561,-210.2596 293.1905,-207.5031"/>
</g>
<!-- system_cpu_interrupts_int_master -->
<g id="node12" class="node">
<title>system_cpu_interrupts_int_master</title>
<path fill="#9f8575" stroke="#000000" d="M374,-425.5C374,-425.5 434,-425.5 434,-425.5 440,-425.5 446,-431.5 446,-437.5 446,-437.5 446,-449.5 446,-449.5 446,-455.5 440,-461.5 434,-461.5 434,-461.5 374,-461.5 374,-461.5 368,-461.5 362,-455.5 362,-449.5 362,-449.5 362,-437.5 362,-437.5 362,-431.5 368,-425.5 374,-425.5"/>
<text text-anchor="middle" x="404" y="-439.8" font-family="Arial" font-size="14.00" fill="#000000">int_master</text>
</g>
<!-- system_cpu_interrupts_int_master&#45;&gt;system_interrupt_xbar_slave -->
<g id="edge8" class="edge">
<title>system_cpu_interrupts_int_master&#45;&gt;system_interrupt_xbar_slave</title>
<path fill="none" stroke="#000000" d="M406.6502,-461.7989C410.2518,-486.6674 416.7253,-531.3655 420.9412,-560.4751"/>
<polygon fill="#000000" stroke="#000000" points="417.4855,-561.0338 422.3828,-570.4288 424.4133,-560.0304 417.4855,-561.0338"/>
</g>
<!-- system_cpu_dcache_mem_side -->
<g id="node14" class="node">
<title>system_cpu_dcache_mem_side</title>
<path fill="#94918b" stroke="#000000" d="M250,-294.5C250,-294.5 310,-294.5 310,-294.5 316,-294.5 322,-300.5 322,-306.5 322,-306.5 322,-318.5 322,-318.5 322,-324.5 316,-330.5 310,-330.5 310,-330.5 250,-330.5 250,-330.5 244,-330.5 238,-324.5 238,-318.5 238,-318.5 238,-306.5 238,-306.5 238,-300.5 244,-294.5 250,-294.5"/>
<text text-anchor="middle" x="280" y="-308.8" font-family="Arial" font-size="14.00" fill="#000000">mem_side</text>
</g>
<!-- system_cpu_dcache_mem_side&#45;&gt;system_membus_slave -->
<g id="edge9" class="edge">
<title>system_cpu_dcache_mem_side&#45;&gt;system_membus_slave</title>
<path fill="none" stroke="#000000" d="M280,-294.285C280,-272.3856 280,-235.3861 280,-209.7663"/>
<polygon fill="#000000" stroke="#000000" points="283.5001,-209.5603 280,-199.5603 276.5001,-209.5603 283.5001,-209.5603"/>
</g>
</g>
</svg>
